<svg xmlns="http://www.w3.org/2000/svg" width="23.976" height="22.636" viewBox="0 0 23.976 22.636">
  <g id="Group_17" data-name="Group 17" transform="translate(1 1)">
    <g id="Group_16" data-name="Group 16">
      <path id="Path_13" data-name="Path 13" d="M-7787.042,2605.789h-17.049v20.636h21.976v-14.606" transform="translate(7804.091 -2605.789)" fill="none" stroke="#7f7e7e" stroke-linecap="round" stroke-linejoin="round" stroke-width="2"/>
    </g>
    <path id="Icon_open-infinity" data-name="Icon open-infinity" d="M3.322,0A3.223,3.223,0,0,0,0,3.322,3.223,3.223,0,0,0,3.322,6.643c1.312,0,2.358-.93,3.322-2.026.963,1.1,1.976,2.026,3.322,2.026a3.223,3.223,0,0,0,3.322-3.322A3.223,3.223,0,0,0,9.965,0C8.619,0,7.606.93,6.643,2.026,5.68.93,4.634,0,3.322,0Zm0,1.661c.7,0,1.461.781,2.225,1.661-.764.88-1.528,1.661-2.225,1.661A1.56,1.56,0,0,1,1.661,3.322,1.56,1.56,0,0,1,3.322,1.661Zm6.643,0a1.56,1.56,0,0,1,1.661,1.661A1.56,1.56,0,0,1,9.965,4.982c-.714,0-1.478-.781-2.225-1.661C8.5,2.441,9.25,1.661,9.965,1.661Z" transform="translate(4.345 6.996)" fill="#7f7e7e"/>
  </g>
</svg>
