<svg xmlns="http://www.w3.org/2000/svg" width="23.976" height="22.636" viewBox="0 0 23.976 22.636">
  <g id="Group_33" data-name="Group 33" transform="translate(-119.5 -148.5)">
    <path id="Path_24" data-name="Path 24" d="M-7787.042,2605.789h-17.049v20.636h21.976v-14.606" transform="translate(7924.591 -2456.289)" fill="none" stroke="#7a7979" stroke-linecap="round" stroke-linejoin="round" stroke-width="2"/>
    <g id="Layer_2" data-name="Layer 2" transform="translate(123.644 152.644)">
      <g id="invisible_box" data-name="invisible box" transform="translate(0.356 0.356)">
        <rect id="Rectangle_78" data-name="Rectangle 78" width="14" height="14" fill="none"/>
      </g>
      <g id="icons_Q2" data-name="icons Q2" transform="translate(1.334 1.334)">
        <path id="Path_25" data-name="Path 25" d="M7.613,4.6V7.011a.6.6,0,0,1-.6.6H4.6a.6.6,0,0,1-.6-.6V4.6A.6.6,0,0,1,4.6,4H7.011A.6.6,0,0,1,7.613,4.6ZM11.227,4H8.818a.6.6,0,0,0-.6.6V7.011a.6.6,0,0,0,.6.6h2.409a.6.6,0,0,0,.6-.6V4.6A.6.6,0,0,0,11.227,4Zm4.215,0H13.033a.6.6,0,0,0-.6.6V7.011a.6.6,0,0,0,.6.6h2.409a.6.6,0,0,0,.6-.6V4.6A.6.6,0,0,0,15.442,4ZM7.011,8.215H4.6a.6.6,0,0,0-.6.6v2.409a.6.6,0,0,0,.6.6H7.011a.6.6,0,0,0,.6-.6V8.818A.6.6,0,0,0,7.011,8.215Zm4.215,0H8.818a.6.6,0,0,0-.6.6v2.409a.6.6,0,0,0,.6.6h2.409a.6.6,0,0,0,.6-.6V8.818A.6.6,0,0,0,11.227,8.215Zm4.215,0H13.033a.6.6,0,0,0-.6.6v2.409a.6.6,0,0,0,.6.6h2.409a.6.6,0,0,0,.6-.6V8.818A.6.6,0,0,0,15.442,8.215ZM7.011,12.431H4.6a.6.6,0,0,0-.6.6v2.409a.6.6,0,0,0,.6.6H7.011a.6.6,0,0,0,.6-.6V13.033A.6.6,0,0,0,7.011,12.431Zm4.215,0H8.818a.6.6,0,0,0-.6.6v2.409a.6.6,0,0,0,.6.6h2.409a.6.6,0,0,0,.6-.6V13.033A.6.6,0,0,0,11.227,12.431Zm4.215,0H13.033a.6.6,0,0,0-.6.6v2.409a.6.6,0,0,0,.6.6h2.409a.6.6,0,0,0,.6-.6V13.033A.6.6,0,0,0,15.442,12.431Z" transform="translate(-4 -4)" fill="#7f7e7e"/>
      </g>
    </g>
  </g>
</svg>
